<?xml version="1.0" encoding="UTF-8" standalone="no"?>
<!-- Created with Inkscape (http://www.inkscape.org/) -->

<svg
   width="81.045555mm"
   height="31.319195mm"
   viewBox="0 0 81.045555 31.319195"
   version="1.1"
   id="svg5"
   inkscape:version="1.2 (dc2aedaf03, 2022-05-15)"
   sodipodi:docname="discover.svg"
   xmlns:inkscape="http://www.inkscape.org/namespaces/inkscape"
   xmlns:sodipodi="http://sodipodi.sourceforge.net/DTD/sodipodi-0.dtd"
   xmlns="http://www.w3.org/2000/svg"
   xmlns:svg="http://www.w3.org/2000/svg">
  <sodipodi:namedview
     id="namedview7"
     pagecolor="#ffffff"
     bordercolor="#cccccc"
     borderopacity="1"
     inkscape:showpageshadow="0"
     inkscape:pageopacity="0"
     inkscape:pagecheckerboard="0"
     inkscape:deskcolor="#d1d1d1"
     inkscape:document-units="mm"
     showgrid="false"
     inkscape:zoom="1.3505331"
     inkscape:cx="251.38221"
     inkscape:cy="36.652193"
     inkscape:window-width="1636"
     inkscape:window-height="1007"
     inkscape:window-x="227"
     inkscape:window-y="5"
     inkscape:window-maximized="1"
     inkscape:current-layer="layer1" />
  <defs
     id="defs2">
    <linearGradient
       id="linearGradient1226"
       inkscape:swatch="solid">
      <stop
         style="stop-color:#000000;stop-opacity:1;"
         offset="0"
         id="stop1224" />
    </linearGradient>
  </defs>
  <g
     inkscape:label="Layer 1"
     inkscape:groupmode="layer"
     id="layer1"
     transform="translate(-18.076034,-112.47675)">
    <path
       d="m 57.680502,139.8541 c 1.26509,-2.11864 2.40901,-3.92077 2.54192,-4.00488 0.13251,-0.0842 0.68704,-0.1552 1.23175,-0.15783 1.1504,-0.007 2.61011,-0.35883 3.83117,-0.92671 0.56114,-0.26107 0.92046,-0.33841 1.03568,-0.22293 0.097,0.097 0.98244,1.55026 1.96736,3.22945 l 1.79065,3.05305 -4.47366,0.048 -4.4737,0.048 -0.73929,1.24421 c -0.4066,0.68432 -0.73906,1.33131 -0.73906,1.43781 0,0.13514 2.31471,0.19367 7.65488,0.19367 4.21015,0 7.65386,-0.0608 7.65261,-0.13514 -0.001,-0.0743 -1.44653,-2.56681 -3.2118,-5.5387 l -3.20982,-5.40337 0.61517,-0.69254 c 1.07697,-1.21235 2.01559,-2.83754 2.50482,-4.33655 0.65844,-2.01812 0.69451,-4.79842 0.0881,-6.76851 -1.43781,-4.66976 -5.207,-7.77134 -10.08753,-8.30013 -1.53586,-0.16638 -18.39691,-0.20156 -18.39691,-0.0381 0,0.15322 6.57143,11.04012 6.66376,11.03936 0.0496,-4.9e-4 0.43297,-0.57607 0.85151,-1.27955 l 0.76123,-1.27877 -1.68143,-2.81815 -1.68093,-2.81765 6.67072,-0.0474 c 7.21816,-0.0513 7.84572,0.01 9.75906,0.94858 2.82637,1.38678 4.77281,4.53738 4.77281,7.72527 0,2.54268 -0.8309,4.55357 -2.61284,6.32308 -1.79194,1.77872 -3.93369,2.60886 -6.74586,2.61458 l -1.5381,0.003 -2.33785,3.95957 -2.33812,3.95958 h -3.38725 c -3.17175,0 -3.37604,-0.0197 -3.21403,-0.31533 0.095,-0.17361 2.65016,-4.44881 5.67805,-9.50104 3.02743,-5.0525 5.53525,-9.26712 5.57234,-9.36665 0.0917,-0.2453 -0.0661,-0.48874 2.71559,4.18799 1.37015,2.30304 2.55438,4.18753 2.63152,4.18753 0.2739,0 1.97406,-1.453 1.97406,-1.68714 0,-0.13054 -1.46194,-2.68179 -3.24888,-5.66938 l -3.24889,-5.43148 h -1.40223 l -7.76635,12.9771 c -4.27187,7.13731 -7.81238,13.09557 -7.86814,13.2409 -0.0878,0.22885 0.7677,0.25713 6.51819,0.21636 l 6.61917,-0.0473 z"
       style="display:inline;fill:#ffffff;fill-opacity:1;fill-rule:evenodd;stroke-width:0.180116"
       shape-rendering="geometricPrecision"
       id="path512" />
    <text
       xml:space="preserve"
       style="font-style:normal;font-variant:normal;font-weight:normal;font-stretch:normal;font-size:6.67342px;line-height:1.25;font-family:'Helvetica World';-inkscape-font-specification:'Helvetica World, Normal';font-variant-ligatures:normal;font-variant-caps:normal;font-variant-numeric:normal;font-variant-east-asian:normal;fill:#000000;fill-opacity:1;stroke:none;stroke-width:0.166836"
       x="17.535122"
       y="135.72484"
       id="text236"><tspan
         sodipodi:role="line"
         id="tspan234"
         x="17.535122"
         y="135.72484"
         style="font-style:normal;font-variant:normal;font-weight:normal;font-stretch:normal;font-size:6.67342px;font-family:'Helvetica World';-inkscape-font-specification:'Helvetica World, Normal';font-variant-ligatures:normal;font-variant-caps:normal;font-variant-numeric:normal;font-variant-east-asian:normal;stroke-width:0.166836">Busque. Encontre. Contrate.</tspan></text>
  </g>
</svg>
