<?xml version="1.0" encoding="UTF-8" standalone="no"?>
<!-- Created with Inkscape (http://www.inkscape.org/) -->

<svg
   width="25.076698mm"
   height="2.3976495mm"
   viewBox="0 0 25.076699 2.3976495"
   version="1.1"
   id="svg5"
   xml:space="preserve"
   sodipodi:docname="Logo_PA_footer.svg"
   inkscape:version="1.2 (dc2aedaf03, 2022-05-15)"
   inkscape:export-filename="Logo_PA.png"
   inkscape:export-xdpi="9.271183"
   inkscape:export-ydpi="9.271183"
   xmlns:inkscape="http://www.inkscape.org/namespaces/inkscape"
   xmlns:sodipodi="http://sodipodi.sourceforge.net/DTD/sodipodi-0.dtd"
   xmlns:xlink="http://www.w3.org/1999/xlink"
   xmlns="http://www.w3.org/2000/svg"
   xmlns:svg="http://www.w3.org/2000/svg"><sodipodi:namedview
     id="namedview7"
     pagecolor="#ffffff"
     bordercolor="#cccccc"
     borderopacity="1"
     inkscape:showpageshadow="0"
     inkscape:pageopacity="0"
     inkscape:pagecheckerboard="false"
     inkscape:deskcolor="#d1d1d1"
     inkscape:document-units="mm"
     showgrid="false"
     inkscape:zoom="3.6203867"
     inkscape:cx="51.790048"
     inkscape:cy="10.219903"
     inkscape:window-width="898"
     inkscape:window-height="1012"
     inkscape:window-x="1004"
     inkscape:window-y="49"
     inkscape:window-maximized="1"
     inkscape:current-layer="svg5"
     showguides="true"><inkscape:page
       x="0"
       y="0"
       width="25.0767"
       height="2.3976495"
       id="page923" /><inkscape:page
       x="-340.69916"
       y="-370.91492"
       width="1058.3333"
       height="1058.3334"
       id="page925" /><sodipodi:guide
       position="-36.073493,27.315073"
       orientation="0,1998.156"
       id="guide5810"
       inkscape:locked="false" /><sodipodi:guide
       position="492.60531,27.315073"
       orientation="475.6895,0"
       id="guide5812"
       inkscape:locked="false" /><sodipodi:guide
       position="492.60531,-98.544455"
       orientation="0,-1998.156"
       id="guide5814"
       inkscape:locked="false" /><sodipodi:guide
       position="-36.073493,-98.544455"
       orientation="-475.6895,0"
       id="guide5816"
       inkscape:locked="false" /></sodipodi:namedview><defs
     id="defs2"><color-profile
       name="Apple-RGB"
       xlink:href="file:///usr/share/color/icc/colord/AppleRGB.icc"
       id="color-profile696" /><linearGradient
       id="linearGradient4119"
       inkscape:swatch="solid"><stop
         style="stop-color:#ffcc00;stop-opacity:1;"
         offset="0"
         id="stop4117" /></linearGradient></defs><g
     inkscape:label="Layer 1"
     inkscape:groupmode="layer"
     id="layer1"
     transform="translate(-560.69917,-370.91492)" /><text
     xml:space="preserve"
     style="font-style:normal;font-weight:normal;font-size:10.5833px;line-height:1.25;font-family:sans-serif;fill:#000000;fill-opacity:1;stroke:none;stroke-width:0.264583"
     x="129.08887"
     y="-249.70773"
     id="text2020"><tspan
       sodipodi:role="line"
       id="tspan2018"
       style="stroke-width:0.264583"
       x="129.08887"
       y="-249.70773" /></text><path
     d="M 1.182298,2.0957773 C 1.27916,1.9335938 1.3667259,1.7956282 1.3768906,1.7891852 c 0.010166,-0.00641 0.052606,-0.011885 0.09432,-0.012087 0.08805,-4.276e-4 0.1998013,-0.027465 0.293287,-0.070946 0.04296,-0.019978 0.07046,-0.025899 0.079286,-0.017079 0.00741,0.00741 0.075201,0.1186915 0.1506021,0.2472375 l 0.1370853,0.2337219 -0.3424867,0.00373 -0.3424867,0.00373 -0.056588,0.095252 c -0.031123,0.052386 -0.056589,0.1019235 -0.056589,0.1100769 0,0.010338 0.1772209,0.014828 0.5860277,0.014828 0.3223146,0 0.585953,-0.00465 0.5858619,-0.010338 C 2.5050961,2.3816253 2.3944693,2.1908222 2.2593212,1.963306 L 2.0135952,1.5496393 2.0606901,1.4966231 C 2.1431401,1.4038103 2.2149997,1.2793988 2.2524457,1.1646326 2.3028499,1.0101425 2.3056209,0.79729798 2.2591683,0.64646828 2.149103,0.28896798 1.860539,0.05153608 1.4869063,0.01104938 1.3693489,-0.00169232 0.07851278,-0.00438382 0.07851278,0.00811318 c 0,0.011745 0.50309197,0.8451958 0.51015406,0.8451426 0.003793,-3.79e-5 0.0331542,-0.04411 0.0652006,-0.097957 l 0.0582646,-0.0979055 -0.12871237,-0.2157404 -0.12871176,-0.2157397 0.51068746,-0.003609 c 0.55258473,-0.00391 0.60062593,7.34e-4 0.74709723,0.072622 0.2163887,0.1061754 0.3654053,0.3473601 0.3654053,0.5914149 0,0.19466292 -0.063618,0.34859452 -0.2000527,0.48405522 -0.1371709,0.136192 -0.3011357,0.199746 -0.5164184,0.2001711 L 1.2436712,1.5707888 1.0646886,1.8739113 0.88570598,2.1770345 H 0.62640637 c -0.24280447,0 -0.2584579,-0.00159 -0.24605872,-0.024138 C 0.38760855,2.1396228 0.58323983,1.8123112 0.81503612,1.4255324 1.0468318,1.0387536 1.238802,0.71609398 1.241636,0.70851008 c 0.00703,-0.018791 -0.00508,-0.03743 0.2078984,0.32059152 0.1048835,0.1763253 0.1955401,0.3205921 0.2014589,0.3205921 0.020969,0 0.151127,-0.1112312 0.151127,-0.1291473 0,-0.010007 -0.1119242,-0.20532 -0.2487209,-0.43402912 L 1.3046792,0.37068268 H 1.2510024 1.1973256 L 0.60275738,1.3641518 C 0.27574366,1.9105596 0.00470306,2.3667035 4.4256174e-4,2.3778052 -0.00628004,2.3953427 0.05922095,2.3975204 0.49943184,2.3943762 l 0.50673526,-0.00361 z"
     style="fill:#000000;fill-opacity:0.97885;fill-rule:evenodd;stroke-width:0.0137889;image-rendering:optimizeQuality"
     id="path1997"
     inkscape:export-filename="path1997.png"
     inkscape:export-xdpi="9.271183"
     inkscape:export-ydpi="9.271183" /><g
     id="g6614"
     transform="matrix(0.8230233,0,0,0.8230233,-20.758429,-18.901292)"><text
       xml:space="preserve"
       style="font-style:italic;font-variant:normal;font-weight:bold;font-stretch:normal;font-size:3.62965px;line-height:1.25;font-family:FreeSerif;-inkscape-font-specification:'FreeSerif, Bold Italic';font-variant-ligatures:normal;font-variant-caps:normal;font-variant-numeric:normal;font-variant-east-asian:normal;fill:#000000;fill-opacity:0.980392;stroke:none;stroke-width:0.0907416;image-rendering:optimizeQuality"
       x="29.053167"
       y="25.642376"
       id="text2014"><tspan
         sodipodi:role="line"
         id="tspan2012"
         style="font-style:italic;font-variant:normal;font-weight:bold;font-stretch:normal;font-size:3.62965px;font-family:FreeSerif;-inkscape-font-specification:'FreeSerif, Bold Italic';font-variant-ligatures:normal;font-variant-caps:normal;font-variant-numeric:normal;font-variant-east-asian:normal;fill:#000000;fill-opacity:0.980392;stroke-width:0.0907416"
         x="29.053167"
         y="25.642376">PROCURA ACHA</tspan></text></g><text
     xml:space="preserve"
     style="font-style:normal;font-weight:normal;font-size:10.5833px;line-height:1.25;font-family:sans-serif;fill:#000000;fill-opacity:1;stroke:none;stroke-width:0.264583"
     x="134.36996"
     y="-247.01591"
     id="text2020-5"><tspan
       sodipodi:role="line"
       id="tspan2018-3"
       style="stroke-width:0.264583"
       x="134.36996"
       y="-247.01591" /></text></svg>
