<?xml version="1.0" encoding="UTF-8" standalone="no"?>
<svg
   width="196.95316"
   height="65.077568"
   viewBox="0 0 52.110142 17.21844"
   xml:space="preserve"
   version="1.1"
   id="svg16"
   sodipodi:docname="Logo_PA.svg"
   inkscape:version="1.2 (dc2aedaf03, 2022-05-15)"
   xmlns:inkscape="http://www.inkscape.org/namespaces/inkscape"
   xmlns:sodipodi="http://sodipodi.sourceforge.net/DTD/sodipodi-0.dtd"
   xmlns="http://www.w3.org/2000/svg"
   xmlns:svg="http://www.w3.org/2000/svg"><defs
     id="defs20" /><sodipodi:namedview
     id="namedview18"
     pagecolor="#ffffff"
     bordercolor="#cccccc"
     borderopacity="1"
     inkscape:showpageshadow="0"
     inkscape:pageopacity="1"
     inkscape:pagecheckerboard="0"
     inkscape:deskcolor="#d1d1d1"
     showgrid="false"
     inkscape:zoom="3.116563"
     inkscape:cx="114.54926"
     inkscape:cy="57.755931"
     inkscape:window-width="1240"
     inkscape:window-height="1012"
     inkscape:window-x="662"
     inkscape:window-y="49"
     inkscape:window-maximized="1"
     inkscape:current-layer="svg16" /><text
     xml:space="preserve"
     style="font-style:normal;font-weight:400;font-size:10.5833px;line-height:1.25;font-family:sans-serif;fill:#000000;fill-opacity:1;stroke:none;stroke-width:0.264583"
     x="165.16196"
     y="-220.62724"
     id="text2" /><path
     d="M 6.2575644,11.093168 C 6.770182,10.234705 7.2336955,9.5044973 7.2875385,9.4704169 7.3412807,9.4363365 7.565929,9.4074992 7.7866449,9.4063901 8.2527801,9.4041718 8.8442464,9.2609938 9.3390171,9.0309007 9.5663878,8.9251305 9.7119857,8.8937725 9.7586698,8.9405574 9.7979933,8.979881 10.156745,9.5687257 10.555829,10.249124 l 0.725569,1.237078 -1.8127141,0.01946 -1.8127141,0.01946 -0.2995647,0.504148 c -0.1647555,0.277281 -0.2994638,0.539438 -0.2994638,0.582593 0,0.05475 0.9379167,0.07855 3.1017197,0.07855 1.705936,0 3.101316,-0.0247 3.100812,-0.05475 -6.05e-4,-0.03015 -0.586122,-1.040057 -1.301407,-2.244265 L 10.657465,8.2019808 10.906716,7.9213721 C 11.343106,7.4301304 11.723435,6.7716124 11.921666,6.164215 12.188461,5.3464871 12.203082,4.2199183 11.957356,3.4216505 11.374767,1.5294827 9.8475007,0.27274279 7.8699302,0.05847989 c -0.6223202,-0.067455 -7.45433075,-0.081672 -7.45433075,-0.015528 0,0.062111 2.66270755,4.47340501 2.70011525,4.47310251 C 3.1358807,4.5158528 3.2911582,4.282634 3.4607536,3.9975887 L 3.7691912,3.4794258 3.0878858,2.3375309 2.406782,1.1958376 5.1097205,1.17668 c 2.9247635,-0.020771 3.1790557,0.00403 3.9543343,0.3843623 1.1452232,0.5619232 1.9339122,1.8385265 1.9339122,3.1302542 0,1.0302767 -0.33667,1.8450805 -1.0587114,2.5620796 -0.7260738,0.7207298 -1.593914,1.0570973 -2.733389,1.0594164 L 6.5826389,8.3139016 5.6353451,9.9183018 4.6879504,11.522702 H 3.3154581 c -1.2851738,0 -1.3679548,-0.0081 -1.3023148,-0.127751 0.038517,-0.07028 1.073835,-1.8026312 2.3007293,-3.8497741 1.2266927,-2.0472437 2.2428531,-3.7549943 2.2578767,-3.7953261 0.037206,-0.099418 -0.026821,-0.1980293 1.1003532,1.6969618 0.5551677,0.9331777 1.0350156,1.6967601 1.0662728,1.6967601 0.1109125,0 0.799881,-0.5887439 0.799881,-0.6836245 0,-0.052936 -0.5923737,-1.0866404 -1.3164309,-2.2972003 L 6.9053944,1.9619407 H 6.3372197 L 3.1903286,7.2202032 C 1.4593873,10.112197 0.02478401,12.52646 0.00219818,12.585345 c -0.03559284,0.09276 0.31105925,0.104258 2.64113002,0.08762 l 2.6820667,-0.01916 z"
     style="fill:#000000;fill-opacity:0.97885;fill-rule:evenodd;stroke-width:0.0729821"
     shape-rendering="geometricPrecision"
     id="path4" /><g
     style="fill:#000000;fill-opacity:0.980392"
     id="g14"
     transform="matrix(1.4939038,0,0,1.4939038,-1.8624951,-1.5393153)"><text
       xml:space="preserve"
       style="font-style:italic;font-variant:normal;font-weight:700;font-stretch:normal;font-size:41.3799px;line-height:1.25;font-family:FreeSerif;-inkscape-font-specification:'FreeSerif, Bold Italic';font-variant-ligatures:normal;font-variant-caps:normal;font-variant-numeric:normal;font-variant-east-asian:normal;fill:#000000;fill-opacity:0.980392;stroke:none;stroke-width:1.0345"
       x="451.673"
       y="251.511"
       transform="matrix(0.1297,0,0,0.1297,-47.056,-27.79)"
       id="text8">PROCURA</text><text
       xml:space="preserve"
       style="font-style:italic;font-variant:normal;font-weight:700;font-stretch:normal;font-size:41.3799px;line-height:1.25;font-family:FreeSerif;-inkscape-font-specification:'FreeSerif, Bold Italic';font-variant-ligatures:normal;font-variant-caps:normal;font-variant-numeric:normal;font-variant-east-asian:normal;fill:#000000;fill-opacity:0.980392;stroke:none;stroke-width:1.0345"
       x="453.07599"
       y="286.966"
       transform="matrix(0.1297,0,0,0.1297,-47.056,-27.79)"
       id="text12"><tspan
         style="font-style:italic;font-variant:normal;font-weight:700;font-stretch:normal;font-size:41.3799px;font-family:FreeSerif;-inkscape-font-specification:'FreeSerif, Bold Italic';font-variant-ligatures:normal;font-variant-caps:normal;font-variant-numeric:normal;font-variant-east-asian:normal;fill:#000000;fill-opacity:0.980392;stroke:none;stroke-width:1.0345"
         x="453.07599"
         y="286.966"
         shape-rendering="geometricPrecision"
         id="tspan10">ACHA</tspan></text></g><text
     xml:space="preserve"
     style="font-style:normal;font-weight:normal;font-size:8.03731px;line-height:1.25;font-family:sans-serif;fill:#000000;fill-opacity:1;stroke:none;stroke-width:0.200933"
     x="-0.26046968"
     y="16.574825"
     id="text342"><tspan
       sodipodi:role="line"
       id="tspan340"
       x="-0.26046968"
       y="16.574825"
       style="font-style:normal;font-variant:normal;font-weight:normal;font-stretch:normal;font-size:2.67911px;font-family:sans-serif;-inkscape-font-specification:'sans-serif, Normal';font-variant-ligatures:normal;font-variant-caps:normal;font-variant-numeric:normal;font-variant-east-asian:normal;stroke-width:0.200933">Buscador online de contatos profissionais</tspan></text><g
     transform="matrix(-2.191334e-4,8.6988198e-4,8.6988198e-4,2.191334e-4,44.823904,5.958039)"
     id="g406"><path
       d="M 2638.6,4994.8 C 1394.4,4820.8 404.2,3904.6 158.1,2694.4 -159.9,1130.1 858.3,-406.2 2428.6,-724.3 c 698.1,-142 1448.3,-14 2054.4,352.1 l 180,110 46,-44 c 56,-52 130,-58 194,-14 26,16 166,144 312.1,284.1 288.1,276 302.1,302.1 214,406.1 -28,34 -50,66 -50,72 0,8 48,94 108,192 500.1,828.1 542.1,1872.3 112,2750.5 -154,316.1 -286.1,498.1 -560.1,770.1 -436.1,438.1 -914.2,694.1 -1502.3,810.2 -195.9,38 -710,56 -898.1,30 z m 860.2,-428.1 C 4263,4400.7 4885.1,3918.6 5235.1,3224.5 5771.2,2160.3 5459.2,844 4501,123.9 3744.9,-446.2 2754.7,-542.2 1908.5,-128.1 1286.4,177.9 832.3,698 622.3,1346.1 c -92,284.1 -114,430.1 -114,778.2 2,422.1 56,684.1 226,1056.2 222,488.1 714.1,978.2 1210.2,1204.2 202,90 450.1,168 654.1,200 216.1,36 694.2,26 900.2,-18 z"
       id="path400" /><path
       d="m 5343.1,-226.2 c -174,-170 -242.1,-248 -230,-268 8,-16 84,-100 168,-188 l 154,-158 262.1,262.1 262.1,262 -166,166 c -90,90 -174,164 -184,164 -12.1,-2 -130.1,-110.1 -266.2,-240.1 z"
       id="path402" /><path
       d="m 5863.2,-734.3 c -356.1,-360.1 -366.1,-378.1 -268,-496.1 72,-88 1544.3,-1704.3 2364.4,-2594.5 358.1,-388.1 684.1,-746.1 726.1,-794.1 94,-108 192,-168 272.1,-168 56,0 116,52 480.1,404.1 408.1,392.1 462.1,456.1 462.1,538.1 0,66 -74,190 -156,260 -42,38 -702.1,648.1 -1466.3,1358.3 -2044.4,1900.3 -1954.4,1820.3 -2028.4,1820.3 -54,0 -104,-42 -386.1,-328.1 z"
       id="path404" /></g></svg>
