<?xml version="1.0" encoding="UTF-8" standalone="no"?>
<svg
   width="151.22"
   height="36"
   viewBox="0 0 40.01 9.525"
   xml:space="preserve"
   version="1.1"
   id="svg16"
   sodipodi:docname="Logo_PA_mono.svg"
   inkscape:version="1.2 (dc2aedaf03, 2022-05-15)"
   xmlns:inkscape="http://www.inkscape.org/namespaces/inkscape"
   xmlns:sodipodi="http://sodipodi.sourceforge.net/DTD/sodipodi-0.dtd"
   xmlns="http://www.w3.org/2000/svg"
   xmlns:svg="http://www.w3.org/2000/svg"><defs
     id="defs20" /><sodipodi:namedview
     id="namedview18"
     pagecolor="#ffffff"
     bordercolor="#cccccc"
     borderopacity="1"
     inkscape:showpageshadow="0"
     inkscape:pageopacity="1"
     inkscape:pagecheckerboard="0"
     inkscape:deskcolor="#d1d1d1"
     showgrid="false"
     inkscape:zoom="8.8149715"
     inkscape:cx="75.666722"
     inkscape:cy="18.037495"
     inkscape:window-width="1461"
     inkscape:window-height="948"
     inkscape:window-x="227"
     inkscape:window-y="64"
     inkscape:window-maximized="1"
     inkscape:current-layer="svg16" /><text
     xml:space="preserve"
     style="font-style:normal;font-weight:400;font-size:10.5833px;line-height:1.25;font-family:sans-serif;fill:#ffffff;fill-opacity:1;stroke:none;stroke-width:0.264583"
     x="165.162"
     y="-224.79"
     id="text2" /><path
     d="M62.061 110.019c5.084-8.514 9.681-15.756 10.215-16.094.533-.338 2.761-.624 4.95-.635 4.623-.022 10.489-1.442 15.396-3.724 2.255-1.049 3.699-1.36 4.162-.896.39.39 3.948 6.23 7.906 12.978l7.196 12.269-17.978.193-17.978.193-2.971 5c-1.634 2.75-2.97 5.35-2.97 5.778 0 .543 9.302.779 30.762.779 16.919 0 30.758-.245 30.753-.543-.006-.299-5.813-10.315-12.907-22.258l-12.899-21.714 2.472-2.783c4.328-4.872 8.1-11.403 10.066-17.427 2.646-8.11 2.791-19.283.354-27.2C112.812 15.169 97.665 2.705 78.052.58 71.88-.089 4.122-.23 4.122.426c0 .616 26.408 44.366 26.779 44.363.2-.002 1.74-2.315 3.422-5.142l3.059-5.139-6.757-11.325L23.87 11.86l26.807-.19c29.007-.206 31.529.04 39.218 3.812 11.358 5.573 19.18 18.234 19.18 31.045 0 10.218-3.339 18.299-10.5 25.41-7.201 7.148-15.808 10.484-27.109 10.507l-6.181.011-9.395 15.912-9.396 15.912H32.882c-12.746 0-13.567-.08-12.916-1.267.382-.697 10.65-17.878 22.818-38.181C54.95 54.527 65.028 37.59 65.177 37.19c.369-.986-.266-1.964 10.913 16.83 5.506 9.255 10.265 16.828 10.575 16.828 1.1 0 7.933-5.839 7.933-6.78 0-.525-5.875-10.777-13.056-22.783L68.486 19.458h-5.635l-31.21 52.15C14.474 100.29.246 124.234.022 124.818c-.353.92 3.085 1.034 26.194.869l26.6-.19z"
     style="fill:#ffffff;fill-opacity:0.97885;fill-rule:evenodd;stroke-width:0.723816"
     shape-rendering="geometricPrecision"
     transform="scale(.07568)"
     id="path4" /><g
     style="fill:#ffffff;fill-opacity:0.980392"
     id="g14"><text
       xml:space="preserve"
       style="font-style:italic;font-variant:normal;font-weight:700;font-stretch:normal;font-size:41.3799px;line-height:1.25;font-family:FreeSerif;-inkscape-font-specification:'FreeSerif, Bold Italic';font-variant-ligatures:normal;font-variant-caps:normal;font-variant-numeric:normal;font-variant-east-asian:normal;fill:#ffffff;fill-opacity:0.980392;stroke:none;stroke-width:1.0345"
       x="451.673"
       y="251.511"
       transform="matrix(.1297 0 0 .1297 -47.056 -27.79)"
       id="text8"><tspan
   style="font-style:italic;font-variant:normal;font-weight:700;font-stretch:normal;font-size:41.3799px;font-family:FreeSerif;-inkscape-font-specification:'FreeSerif, Bold Italic';font-variant-ligatures:normal;font-variant-caps:normal;font-variant-numeric:normal;font-variant-east-asian:normal;fill:#ffffff;fill-opacity:0.980392;stroke-width:1.0345"
   x="451.673"
   y="251.511"
   shape-rendering="geometricPrecision"
   id="tspan6">PÁGINAS </tspan> </text><text
       xml:space="preserve"
       style="font-style:italic;font-variant:normal;font-weight:700;font-stretch:normal;font-size:41.3799px;line-height:1.25;font-family:FreeSerif;-inkscape-font-specification:'FreeSerif, Bold Italic';font-variant-ligatures:normal;font-variant-caps:normal;font-variant-numeric:normal;font-variant-east-asian:normal;fill:#ffffff;fill-opacity:0.980392;stroke:none;stroke-width:1.0345"
       x="453.076"
       y="286.966"
       transform="matrix(.1297 0 0 .1297 -47.056 -27.79)"
       id="text12"><tspan
         style="font-style:italic;font-variant:normal;font-weight:700;font-stretch:normal;font-size:41.3799px;font-family:FreeSerif;-inkscape-font-specification:'FreeSerif, Bold Italic';font-variant-ligatures:normal;font-variant-caps:normal;font-variant-numeric:normal;font-variant-east-asian:normal;fill:#ffffff;fill-opacity:0.980392;stroke:none;stroke-width:1.0345"
         x="453.076"
         y="286.966"
         shape-rendering="geometricPrecision"
         id="tspan10">AMARELAS</tspan></text></g></svg>
