<?xml version="1.0" encoding="UTF-8" standalone="no"?>
<!-- Created with Inkscape (http://www.inkscape.org/) -->

<svg
   width="41.348606mm"
   height="3.9196444mm"
   viewBox="0 0 41.348607 3.9196443"
   version="1.1"
   id="svg5"
   xml:space="preserve"
   sodipodi:docname="Logo_PA_footer.svg"
   inkscape:version="1.2 (dc2aedaf03, 2022-05-15)"
   inkscape:export-filename="Logo_PA.png"
   inkscape:export-xdpi="9.271183"
   inkscape:export-ydpi="9.271183"
   xmlns:inkscape="http://www.inkscape.org/namespaces/inkscape"
   xmlns:sodipodi="http://sodipodi.sourceforge.net/DTD/sodipodi-0.dtd"
   xmlns:xlink="http://www.w3.org/1999/xlink"
   xmlns="http://www.w3.org/2000/svg"
   xmlns:svg="http://www.w3.org/2000/svg"><sodipodi:namedview
     id="namedview7"
     pagecolor="#ffffff"
     bordercolor="#cccccc"
     borderopacity="1"
     inkscape:showpageshadow="0"
     inkscape:pageopacity="0"
     inkscape:pagecheckerboard="false"
     inkscape:deskcolor="#d1d1d1"
     inkscape:document-units="mm"
     showgrid="false"
     inkscape:zoom="3.6203867"
     inkscape:cx="80.516261"
     inkscape:cy="16.158495"
     inkscape:window-width="1874"
     inkscape:window-height="1021"
     inkscape:window-x="20"
     inkscape:window-y="49"
     inkscape:window-maximized="1"
     inkscape:current-layer="svg5"
     showguides="true"><inkscape:page
       x="0"
       y="0"
       width="41.348606"
       height="3.9196444"
       id="page923" /><inkscape:page
       x="-340.69916"
       y="-369.39291"
       width="1058.3333"
       height="1058.3334"
       id="page925" /><sodipodi:guide
       position="-36.073492,27.315074"
       orientation="0,1998.156"
       id="guide5810"
       inkscape:locked="false" /><sodipodi:guide
       position="492.60529,27.315074"
       orientation="475.6895,0"
       id="guide5812"
       inkscape:locked="false" /><sodipodi:guide
       position="492.60529,-98.544449"
       orientation="0,-1998.156"
       id="guide5814"
       inkscape:locked="false" /><sodipodi:guide
       position="-36.073492,-98.544449"
       orientation="-475.6895,0"
       id="guide5816"
       inkscape:locked="false" /></sodipodi:namedview><defs
     id="defs2"><color-profile
       name="Apple-RGB"
       xlink:href="file:///usr/share/color/icc/colord/AppleRGB.icc"
       id="color-profile6647" /><linearGradient
       id="linearGradient4119"
       inkscape:swatch="solid"><stop
         style="stop-color:#ffcc00;stop-opacity:1;"
         offset="0"
         id="stop4117" /></linearGradient></defs><g
     inkscape:label="Layer 1"
     inkscape:groupmode="layer"
     id="layer1"
     transform="translate(-560.69917,-369.39293)" /><text
     xml:space="preserve"
     style="font-style:normal;font-weight:normal;font-size:10.5833px;line-height:1.25;font-family:sans-serif;fill:#000000;fill-opacity:1;stroke:none;stroke-width:0.264583"
     x="129.08887"
     y="-248.18575"
     id="text2020"><tspan
       sodipodi:role="line"
       id="tspan2018"
       style="stroke-width:0.264583"
       x="129.08887"
       y="-248.18575"></tspan></text><path
     d="m 1.9328025,3.4261444 c 0.158348,-0.265135 0.3015,-0.490679 0.318117,-0.501212 0.01662,-0.01048 0.086,-0.01943 0.154193,-0.01976 0.143943,-6.99e-4 0.326632,-0.0449 0.479461,-0.115982 0.07023,-0.03266 0.115187,-0.04234 0.129616,-0.02792 0.01212,0.01212 0.122938,0.194035 0.246202,0.40418 l 0.224105,0.382085 -0.559892,0.0061 -0.559892,0.0061 -0.09251,0.155717 c -0.05088,0.08564 -0.09251,0.166623 -0.09251,0.179952 0,0.0169 0.289718,0.02424 0.958029,0.02424 0.526915,0 0.957907,-0.0076 0.957758,-0.0169 -1.87e-4,-0.0093 -0.181038,-0.321222 -0.401976,-0.693162 l -0.401709,-0.676256 0.07699,-0.08667 c 0.134788,-0.151729 0.252263,-0.355115 0.313479,-0.542733 0.0824,-0.252558 0.08693,-0.600513 0.01099,-0.847087 -0.179933,-0.58443601 -0.651673,-0.97258601 -1.262482,-1.03877301 -0.192181,-0.02083 -2.30242001,-0.02523 -2.30242001,-0.0048 0,0.0192 0.822447,1.38171301 0.833992,1.38162601 0.0062,-6.2e-5 0.0542,-0.07211 0.10658901,-0.160138 l 0.09525,-0.160055 -0.21041701,-0.35268901 -0.210416,-0.352688 0.83486401,-0.0059 c 0.903357,-0.0064 0.981894,0.0012 1.221343,0.118721 0.353749,0.173574 0.597359,0.56785901 0.597359,0.96683601 0,0.318232 -0.104001,0.569877 -0.327043,0.791326 -0.224245,0.222645 -0.492292,0.326542 -0.844233,0.327237 l -0.192505,3.62e-4 -0.292598,0.49554 -0.292598,0.495541 h -0.423899 c -0.39693301,0 -0.42252301,-0.0026 -0.40225301,-0.03946 0.01187,-0.0217 0.331685,-0.556784 0.71062201,-1.189084 0.378936,-0.6323 0.692766,-1.159779 0.697399,-1.172177 0.01149,-0.03072 -0.0083,-0.06119 0.339869,0.524098 0.171462,0.288254 0.319666,0.524099 0.329342,0.524099 0.03428,0 0.24706,-0.181839 0.24706,-0.211128 0,-0.01636 -0.182972,-0.335654 -0.406605,-0.709544 L 2.1328695,0.60598639 h -0.08775 -0.08775 L 0.98537849,2.2300944 c -0.534597,0.893259 -0.97769,1.638956 -0.98465499745,1.657105 -0.0109900025,0.02867 0.0960899975,0.03223 0.81573999745,0.02709 l 0.82840301,-0.0059 z"
     style="fill:#000000;fill-opacity:0.97885;fill-rule:evenodd;stroke-width:0.0225419;image-rendering:optimizeQuality"
     id="path1997"
     inkscape:export-filename="path1997.png"
     inkscape:export-xdpi="9.271183"
     inkscape:export-ydpi="9.271183" /><g
     id="g6614"
     transform="matrix(0.8230233,0,0,0.8230233,-20.758429,-17.379299)"><text
       xml:space="preserve"
       style="font-style:italic;font-variant:normal;font-weight:bold;font-stretch:normal;font-size:4.57821px;line-height:1.25;font-family:FreeSerif;-inkscape-font-specification:'FreeSerif, Bold Italic';font-variant-ligatures:normal;font-variant-caps:normal;font-variant-numeric:normal;font-variant-east-asian:normal;fill:#000000;fill-opacity:0.980392;stroke:none;stroke-width:0.114456;image-rendering:optimizeQuality"
       x="31.485029"
       y="25.516628"
       id="text2014"><tspan
         sodipodi:role="line"
         id="tspan2012"
         style="font-style:italic;font-variant:normal;font-weight:bold;font-stretch:normal;font-size:4.57821px;font-family:FreeSerif;-inkscape-font-specification:'FreeSerif, Bold Italic';font-variant-ligatures:normal;font-variant-caps:normal;font-variant-numeric:normal;font-variant-east-asian:normal;fill:#000000;fill-opacity:0.980392;stroke-width:0.114456"
         x="31.485029"
         y="25.516628">PÁGINAS </tspan></text><text
       xml:space="preserve"
       style="font-style:italic;font-variant:normal;font-weight:bold;font-stretch:normal;font-size:4.57821px;line-height:1.25;font-family:FreeSerif;-inkscape-font-specification:'FreeSerif, Bold Italic';font-variant-ligatures:normal;font-variant-caps:normal;font-variant-numeric:normal;font-variant-east-asian:normal;fill:#000000;fill-opacity:0.980392;stroke:none;stroke-width:0.114456;image-rendering:optimizeQuality"
       x="51.316616"
       y="25.516628"
       id="text2024"><tspan
         sodipodi:role="line"
         id="tspan2022"
         style="font-style:italic;font-variant:normal;font-weight:bold;font-stretch:normal;font-size:4.57821px;font-family:FreeSerif;-inkscape-font-specification:'FreeSerif, Bold Italic';font-variant-ligatures:normal;font-variant-caps:normal;font-variant-numeric:normal;font-variant-east-asian:normal;fill:#000000;fill-opacity:0.980392;stroke:none;stroke-width:0.114456"
         x="51.316616"
         y="25.516628">AMARELAS</tspan></text></g><text
     xml:space="preserve"
     style="font-style:normal;font-weight:normal;font-size:10.5833px;line-height:1.25;font-family:sans-serif;fill:#000000;fill-opacity:1;stroke:none;stroke-width:0.264583"
     x="134.36996"
     y="-245.49393"
     id="text2020-5"><tspan
       sodipodi:role="line"
       id="tspan2018-3"
       style="stroke-width:0.264583"
       x="134.36996"
       y="-245.49393" /></text></svg>
